<svg class="icon" style="width: 1em; height: 1em;vertical-align: middle;fill: red;overflow: hidden;" viewBox="0 0 1024 1024" version="1.1" xmlns="http://www.w3.org/2000/svg" p-id="1857"><path d="M750.409366 878.209566s10.626012-66.077951-54.888097-146.84444c63.736627-185.405687 66.851571-291.188942 66.85157-291.188941s131.012869 31.201629 131.012869 165.194366c0.008186 229.481532-142.976342 272.839015-142.976342 272.839015zM389.248793 797.655925s-93.482091-228.863455-93.482091-350.016768c0-54.494125 5.904477-68.565609 15.124466-112.561636h399.801638c9.287527 44.028772 15.237029 58.140165 15.23703 112.599498 0 119.323643-81.746816 349.978906-81.746816 349.978906H389.248793z m121.4337-418.779875c-44.976354 0-81.437777 37.799908-81.437777 84.445274 0 46.628994 36.461423 84.429925 81.437777 84.429925 44.981471 0 81.443917-37.800931 81.443917-84.429925 0-46.639227-36.462446-84.445274-81.443917-84.445274zM493.149165 87.774089V64.576761h31.699979v26.01449c36.233226 27.352975 134.301775 45.479821 178.639587 213.05849H318.022589c42.841737-162.928766 136.161123-185.873338 175.126576-215.875652zM283.022447 878.209566s-154.455791-43.357484-154.455791-272.839015c0-133.992737 131.012869-165.194366 131.012869-165.194366s0.918929 120.582309 78.323857 291.188941c-65.50797 80.766488-54.880935 146.844439-54.880935 146.84444z m287.312658 16.9613l-26.564006-27.525913-28.322045 91.778286-33.637099-91.778286-23.019272 47.725978-33.638122-86.276993h182.358281l-37.177737 66.076928z" p-id="1858"></path></svg>